<svg xmlns="http://www.w3.org/2000/svg" viewBox="0 0 428.22 428.22"><g id="Layer_2" data-name="Layer 2"><g id="Layer_4" data-name="Layer 4"><circle cx="214.11" cy="214.11" r="198.5" fill="#9f0102" stroke="#000" stroke-miterlimit="10" stroke-width="12"/><path d="M420.72,214.11c0,114.11-92.5,206.61-206.61,206.61S7.5,328.22,7.5,214.11,100,7.5,214.11,7.5,420.72,100,420.72,214.11Z" fill="none" stroke="#d7aa2e" stroke-linejoin="round" stroke-width="15"/><path d="M345.61,329.11s-26.34-2-34,0-22.11,8.09-27.44,11-21.95,9-28.53,10-29.64,3-37.32-1-12.08-6-12.08-6c0,14.27-12.47,24-29.19,24a33.78,33.78,0,0,1-17.11-4.53,39.15,39.15,0,0,0,3.94-7.11c1.33-3.12,8.25-19.39-1.54-32.36a28.8,28.8,0,0,0-14.27-10,31.54,31.54,0,0,0-18.66,0,28.34,28.34,0,0,0-14.27,10,22,22,0,0,0-4.39,12,17.84,17.84,0,0,0,2.2,10,20.25,20.25,0,0,0,8.78,8c7.11,3.55,14.78,2.7,18,1.24a17.4,17.4,0,0,0,6.33-5.06,14.8,14.8,0,0,0,3.13-7.18c.16-1.29.77-7.76-4.39-12-4.86-4-12.75-4.32-17.56-1-.71.49-4.18,2.88-4.39,7a8.94,8.94,0,0,0,3.29,7,11.05,11.05,0,0,0,12.07,1,6.87,6.87,0,0,0,3.4-4.37,5.52,5.52,0,0,0-2.3-5.63c-2-1.33-5.37-1.49-6.59,0-.72.89-.76,2.43,0,3,1,.74,2.74-.7,3.91.07a2.31,2.31,0,0,1,.48,2.93c-1,1.65-4.59,1.91-7,.62a5.29,5.29,0,0,1-2.9-4.62,5.62,5.62,0,0,1,2.19-4,9.32,9.32,0,0,1,7.68-2,9.68,9.68,0,0,1,6.59,5,11,11,0,0,1-2.2,13c-4.65,4.47-12,3.78-16.46,2a16,16,0,0,1-8.78-9,16.22,16.22,0,0,1,1.1-14c3-5.07,7.88-7.18,9.88-8a27.34,27.34,0,0,1,24.14,2,23.63,23.63,0,0,1,11,17,23.9,23.9,0,0,1-2.2,13,24.34,24.34,0,0,1-5.48,8c-8.37,8-20.53,8-21.41,8-12.67,0-23.44-7.25-27.43-17.36-20.18-2.38-35.68-16.53-35.68-33.64,0-15.36,12.49-28.33,29.64-32.55a22.56,22.56,0,0,1-1.1-6.95c0-16.84,18.67-30.5,41.71-30.5,21.15,0,38.61,11.51,41.32,26.44a39.08,39.08,0,0,1,5.87-.44c16.55,0,30.58,8,32.93,21,0,0,6.59-1,11,0s5.49,1,13.59,5.17c7.39,3.8,19.7,15.18,32.51,18.83,17.1,4.87,23.06-3.23,45,2A72.88,72.88,0,0,1,345.61,329.11Z" fill="#f3c43e" stroke="#d7aa2e" stroke-miterlimit="10" stroke-width="3.14"/><path d="M368.1,136.83s-16-1.33-20.63,0a97.38,97.38,0,0,0-16.63,7.32c-3.33,2-13.3,6-17.3,6.65s-18,2-22.62-.67-7.31-4-7.31-4c0,9.5-7.56,16-17.7,16a19.1,19.1,0,0,1-10.37-3,27.13,27.13,0,0,0,2.39-4.73c.8-2.08,5-12.91-.94-21.53a17.23,17.23,0,0,0-20-6.66,17.22,17.22,0,0,0-8.65,6.66,15.32,15.32,0,0,0-2.66,8,12.37,12.37,0,0,0,6.65,12c4.31,2.36,9,1.79,10.9.82a10.63,10.63,0,0,0,3.84-3.37,10.33,10.33,0,0,0,1.89-4.77c.1-.86.47-5.16-2.66-8a8.72,8.72,0,0,0-10.64-.66,6.4,6.4,0,0,0-2.67,4.66,6.11,6.11,0,0,0,9.32,5.32,4.51,4.51,0,0,0,2.06-2.91,3.87,3.87,0,0,0-1.4-3.74c-1.24-.89-3.25-1-4,0a1.63,1.63,0,0,0,0,2c.61.5,1.66-.46,2.37,0a1.66,1.66,0,0,1,.29,2c-.59,1.1-2.78,1.27-4.23.41a3.56,3.56,0,0,1-1.75-3.07,3.82,3.82,0,0,1,1.33-2.67,5.31,5.31,0,0,1,4.65-1.33,6,6,0,0,1,4,3.33,7.81,7.81,0,0,1-1.33,8.65c-2.81,3-7.3,2.52-10,1.33a10.38,10.38,0,0,1-5.32-6,11.74,11.74,0,0,1,.67-9.31,12.12,12.12,0,0,1,6-5.32,15.25,15.25,0,0,1,14.63,1.33A16,16,0,0,1,257,142.82a17.23,17.23,0,0,1-1.33,8.65,16.28,16.28,0,0,1-3.32,5.32c-5.07,5.34-12.44,5.32-13,5.32a17.6,17.6,0,0,1-16.62-11.55c-12.24-1.58-21.63-11-21.63-22.38,0-10.22,7.57-18.85,18-21.65a16.66,16.66,0,0,1-.66-4.63c0-11.2,11.31-20.29,25.28-20.29,12.82,0,23.4,7.66,25.05,17.59a21.84,21.84,0,0,1,3.56-.29c10,0,18.53,5.3,19.95,14a20.24,20.24,0,0,1,6.66,0c2.66.66,3.32.66,8.23,3.44,4.48,2.53,11.95,10.1,19.71,12.53,10.36,3.24,14-2.15,27.28,1.33A42.28,42.28,0,0,1,368.1,136.83Z" fill="#f3c43e" stroke="#d7aa2e" stroke-miterlimit="10" stroke-width="2"/><path d="M224.9,249.88a85.57,85.57,0,0,0,8.34-7.06,67.83,67.83,0,0,0,4.62-5,28.35,28.35,0,0,1,2.83-3.08,4.29,4.29,0,0,1,2.95-1,7.26,7.26,0,0,1,3.21,1q1.92,1,5.78,2.82c1.19.52,2.35,2,3.46,4.37a14.72,14.72,0,0,1,1.67,5.65,3,3,0,0,1-1,2.43,8.23,8.23,0,0,1-3.85,1.42q-1.8.26-6.67,3t-11.43,6.93q-6.54,4.23-14,9.37t-14.37,10.14q-6.94,5-12.58,9.37t-8.48,6.93q4.62,2.83,16.69,10.66t28.24,17.84q16.17,10,34.27,20.66t34.53,18.87a22.83,22.83,0,0,0,5.78,1.93q3.21.65,6.16,1.15a28.28,28.28,0,0,1,5,1.29c1.36.51,2,1.28,2,2.31s-.69,2.44-2,4.23a45.82,45.82,0,0,1-4.88,5.39,48.76,48.76,0,0,1-5.78,4.75q-3,2.06-4.75,2.06a8.68,8.68,0,0,1-4.87-1.54q-2.31-1.54-7.45-4.88Q256,359.5,233.37,344.73t-37.22-23.49q-14.64-8.72-22.34-12.32t-10-3.59q0,6.42.13,15.79t.25,19q.13,9.63.26,18.1t.13,13.09a7.22,7.22,0,0,1-1.67,3.86,31.51,31.51,0,0,1-4,4.49,28.37,28.37,0,0,1-4.62,3.59,7.8,7.8,0,0,1-3.59,1.41,2.65,2.65,0,0,1-2.57-1.92q-.76-1.94-.77-9.37c0-1.88.08-4.79.26-8.73s.29-8.68.38-14.25.21-11.63.39-18.23.25-13.38.25-20.4q0-15.4-.77-30.94t-2-30.93a8.09,8.09,0,0,0-1.41-4.11,17.5,17.5,0,0,0-2.31-2.57c-.77-.68-1.46-1.24-2.06-1.67a1.77,1.77,0,0,1-.9-1.41,3.11,3.11,0,0,1,.39-1.8,9.14,9.14,0,0,1,.9-1q4.88-3.86,7.83-6l4.49-3.33a10.23,10.23,0,0,1,2.31-1.42,4.52,4.52,0,0,1,1.28-.25,6.38,6.38,0,0,1,2.57,1,29.08,29.08,0,0,1,3.72,2.57,25.59,25.59,0,0,1,3.47,3.34,5.31,5.31,0,0,1,1.54,3.34c0,2.4-.22,5.6-.64,9.62s-.86,8.48-1.28,13.35-.86,10-1.29,15.41-.64,10.57-.64,15.53l6.42,2.31Z" fill="#fff" stroke="#000" stroke-miterlimit="10" stroke-width="4.58"/><path d="M77.49,232.33c-2.06,0-3.46-.6-4.2-1.82a9.87,9.87,0,0,1-1.12-5.17q0-14.55.84-30.22t.84-33.29V145.6q0-8.67-.14-17.07t-.42-15.67q-.29-7.27-.56-12.59a9.2,9.2,0,0,0-1.82-5.74,22.52,22.52,0,0,0-4.2-4.19q-2.37-1.82-4.19-3.5a5.15,5.15,0,0,1-1.82-3.92A6.59,6.59,0,0,1,62,80.12a25.65,25.65,0,0,1,3.36-4.05,25.17,25.17,0,0,1,4.9-3.78,11.22,11.22,0,0,1,5.87-1.68,21.88,21.88,0,0,1,6.16,1.12,59.15,59.15,0,0,1,7,2.66A36.68,36.68,0,0,1,95,77.61c1.58,1.11,2.38,2.14,2.38,3.08,0,1.67-.7,4.1-2.1,7.27a31.66,31.66,0,0,0-2.38,11.47q0,10.06-.14,21T92,141.68h74.43q.27-5.6.42-12.59t.14-14.27a174.89,174.89,0,0,0-.84-17.91c-.56-5.41-.84-9.41-.84-12,0-1.3.93-2.52,2.8-3.64a32.9,32.9,0,0,1,6.57-2.94,56.37,56.37,0,0,1,7.7-2,37.52,37.52,0,0,1,6.43-.7c3.73,0,5.6,1.31,5.6,3.91a5,5,0,0,1-.7,2.38c-.47.84-1,1.87-1.54,3.08s-1.22,2.75-2,4.62a39.46,39.46,0,0,0-2,7.27q-.84,5-1.4,10.91T186,119.71c-.18,4-.33,7.94-.42,11.76s-.14,7.13-.14,9.93c1.49-.18,3-.33,4.62-.42s3.12-.14,4.62-.14a7.26,7.26,0,0,1,3.5.7c.83.47,1.25,1.63,1.25,3.5a20.41,20.41,0,0,1-1.68,6.85c-1.11,2.9-2.79,4.34-5,4.34a8,8,0,0,1-2-.28,10.79,10.79,0,0,0-2.52-.28q-2.81,0-2.8,3.36l-.56,55.12a14.63,14.63,0,0,1-.7,4,32.63,32.63,0,0,1-1.81,4.76,16.69,16.69,0,0,1-2.66,4.06,4.68,4.68,0,0,1-3.5,1.67c-2.61,0-4.43-.46-5.46-1.4s-1.63-2.88-1.81-5.87l-2.8-65.19q-7.56,0-18.61.42t-22.24,1q-11.19.57-20.57,1.55a88.65,88.65,0,0,0-13.29,2.09,20.87,20.87,0,0,0-1.12,5.18c-.18,2-.27,3.69-.27,5.18v47.56Q90.08,232.33,77.49,232.33Z" fill="#fff" stroke="#000" stroke-miterlimit="10" stroke-width="5"/><path d="M218.73,287.32a25.85,25.85,0,0,1,4.14-8.56,22,22,0,0,1,7.32-6.3A22.27,22.27,0,0,1,241,270a17.56,17.56,0,0,1,7,1.42,15.59,15.59,0,0,1,5.8,4.42,22.83,22.83,0,0,1,4,7.64,36.69,36.69,0,0,1,1.47,11,28.67,28.67,0,0,1-1.89,10.77,23.71,23.71,0,0,1-5,7.87,21.64,21.64,0,0,1-15.47,6.49,17.75,17.75,0,0,1-6.91-1.47,18.42,18.42,0,0,1-6.26-4.38,22.71,22.71,0,0,1-4.51-7.22,26.59,26.59,0,0,1-1.75-10A34.78,34.78,0,0,1,218.73,287.32Zm6,12.53a22.2,22.2,0,0,0,2.35,6.21,17.76,17.76,0,0,0,4.65,5.39,11.94,11.94,0,0,0,7.55,2.3,15,15,0,0,0,4.33-.74,11.74,11.74,0,0,0,4.55-2.76,15.39,15.39,0,0,0,3.6-5.57,24.58,24.58,0,0,0,1.42-9.07A33.05,33.05,0,0,0,252,286a18.38,18.38,0,0,0-3.13-6.22,11.66,11.66,0,0,0-4.42-3.4,13,13,0,0,0-5.16-1.06,12.8,12.8,0,0,0-6.44,1.61,14.77,14.77,0,0,0-4.79,4.28,19.8,19.8,0,0,0-2.95,6.26,27.86,27.86,0,0,0-1,7.55A25.75,25.75,0,0,0,224.71,299.85Z" fill="#fff" stroke="#000" stroke-miterlimit="10" stroke-width="2.35"/><path d="M268,284.33c0-1.13,0-2.28,0-3.45,0-2.09-.41-3.59-1.24-4.51a7.38,7.38,0,0,0-2.76-2c-1-.4-1.93-.75-2.76-1.06a1.68,1.68,0,0,1-1.25-1.66q0-.65,1-1.38l3.31-2.67a4.43,4.43,0,0,1,1.25-.83,2.8,2.8,0,0,1,1-.18,2,2,0,0,1,1.06.32,5.91,5.91,0,0,1,1.24,1.24q5.34,6.36,11,12.71t10.45,11.6q4.83,5.25,8.38,8.93c2.36,2.46,4,4,4.83,4.79q.74-4.69,1.06-9t.32-8.79q0-3.58-.27-6.26c-.19-1.78-.37-3.28-.56-4.51s-.37-2.21-.55-3a7.79,7.79,0,0,1-.27-1.75,1.81,1.81,0,0,1,.78-1.33,5.15,5.15,0,0,1,1.7-.79,12,12,0,0,1,2.12-.36c.74-.06,1.41-.1,2-.1a1.87,1.87,0,0,1,1.75.79,3.43,3.43,0,0,1,.46,1.79,16.09,16.09,0,0,1-.46,3c-.31,1.41-.64,3.32-1,5.71s-.71,5.39-1,9-.46,7.9-.46,12.93c0,1.54,0,3.18.09,4.93s.09,3.6.09,5.57a3.33,3.33,0,0,1-.83,2,12.69,12.69,0,0,1-1.88,1.93,16.68,16.68,0,0,1-2.08,1.47,3.55,3.55,0,0,1-1.38.6c-.3,0-.57-.34-.78-1s-.48-1.54-.78-2.58a27.12,27.12,0,0,0-1.34-3.5,16.11,16.11,0,0,0-2.53-3.87q-3.59-4.23-7.41-8.33t-7.18-7.64q-3.36-3.54-6.08-6.31T273,282.54c-.19,2.58-.34,5.23-.47,8s-.2,5.39-.23,8-.06,5-.09,7.22,0,4.13,0,5.67c0,1.35,0,2.71.09,4.09s.09,2.44.09,3.18a4.07,4.07,0,0,1-.32,1.52,1.88,1.88,0,0,1-1.34,1.06l-3.36.83a9.52,9.52,0,0,1-2.16.27c-1.17,0-1.75-.43-1.75-1.29a2.5,2.5,0,0,1,.46-1.42c.31-.47.66-1.05,1.06-1.75a15.39,15.39,0,0,0,1.15-2.81,20,20,0,0,0,.74-4.51l1.1-22.74C268,286.62,268,285.47,268,284.33Z" fill="#fff" stroke="#000" stroke-miterlimit="10" stroke-width="2.35"/><path d="M351.88,302.7a6.33,6.33,0,0,1,2.67-.37,2,2,0,0,1,.92.19c.25.12.44.44.6,1a10.5,10.5,0,0,1,.27,2.4c0,1.07.05,2.59.05,4.55a95,95,0,0,0,.42,10,63.33,63.33,0,0,1,.41,6.49,2.71,2.71,0,0,1-.51,1.85,3.05,3.05,0,0,1-2.16.55,1.44,1.44,0,0,1-.92-.28,2.83,2.83,0,0,1-.74-1.06,11.79,11.79,0,0,1-.69-2.25c-.21-1-.44-2.27-.69-3.87a2.53,2.53,0,0,0-2.76-2.39,8.81,8.81,0,0,0-1.34.18c-.64.12-1.39.25-2.25.37s-1.78.25-2.76.37a23.06,23.06,0,0,1-2.77.18,20.5,20.5,0,0,1-10.44-2.39,20.09,20.09,0,0,1-6.5-5.85,22.59,22.59,0,0,1-3.36-7.23,27.26,27.26,0,0,1-1-6.62,36.94,36.94,0,0,1,1.75-11.24,27.81,27.81,0,0,1,5.47-9.85,28.36,28.36,0,0,1,9.44-7,31.5,31.5,0,0,1,13.63-2.72,21.83,21.83,0,0,1,8,1.15q2.76,1.16,2.76,3.64a2.18,2.18,0,0,1-.55,1.34,5.84,5.84,0,0,1-1.29,1.19,8.48,8.48,0,0,1-1.48.83,3.07,3.07,0,0,1-1.19.32,2.16,2.16,0,0,1-1.34-.55c-.46-.37-1.36-1.16-2.71-2.39a4.45,4.45,0,0,0-1.75-1.06,7.83,7.83,0,0,0-2-.23,14.88,14.88,0,0,0-8.51,2.71,28.82,28.82,0,0,0-7.05,6.86,35.45,35.45,0,0,0-4.79,9.07,28.11,28.11,0,0,0-1.74,9.35,26,26,0,0,0,1.05,8.1,11.14,11.14,0,0,0,2.95,4.83,10.28,10.28,0,0,0,4.37,2.35,21.24,21.24,0,0,0,5.34.64,16.35,16.35,0,0,0,4.56-.59,15,15,0,0,0,3.59-1.52,9,9,0,0,0,2.4-2,4.82,4.82,0,0,0,1.05-2.21l.74-5.52A1.72,1.72,0,0,1,351.88,302.7Z" fill="#fff" stroke="#000" stroke-miterlimit="10" stroke-width="2.35"/><path d="M191.73,190.32a25.85,25.85,0,0,1,4.14-8.56,22,22,0,0,1,7.32-6.3A22.27,22.27,0,0,1,214,173a17.56,17.56,0,0,1,7,1.42,15.59,15.59,0,0,1,5.8,4.42,22.83,22.83,0,0,1,4,7.64,36.69,36.69,0,0,1,1.47,11,28.67,28.67,0,0,1-1.89,10.77,23.71,23.71,0,0,1-5,7.87,21.64,21.64,0,0,1-15.47,6.49,17.75,17.75,0,0,1-6.91-1.47,18.42,18.42,0,0,1-6.26-4.38,22.71,22.71,0,0,1-4.51-7.22,26.59,26.59,0,0,1-1.75-10A34.78,34.78,0,0,1,191.73,190.32Zm6,12.53a22.2,22.2,0,0,0,2.35,6.21,17.76,17.76,0,0,0,4.65,5.39,11.94,11.94,0,0,0,7.55,2.3,15,15,0,0,0,4.33-.74,11.74,11.74,0,0,0,4.55-2.76,15.39,15.39,0,0,0,3.6-5.57,24.58,24.58,0,0,0,1.42-9.07A33.05,33.05,0,0,0,225,189a18.38,18.38,0,0,0-3.13-6.22,11.66,11.66,0,0,0-4.42-3.4,13,13,0,0,0-5.16-1.06,12.8,12.8,0,0,0-6.44,1.61,14.77,14.77,0,0,0-4.79,4.28,19.8,19.8,0,0,0-2.95,6.26,27.86,27.86,0,0,0-1,7.55A25.75,25.75,0,0,0,197.71,202.85Z" fill="#fff" stroke="#000" stroke-miterlimit="10" stroke-width="2.35"/><path d="M241,187.33c0-1.13,0-2.28,0-3.45,0-2.09-.41-3.59-1.24-4.51a7.38,7.38,0,0,0-2.76-2c-1-.4-1.93-.75-2.76-1.06a1.68,1.68,0,0,1-1.25-1.66q0-.64,1-1.38l3.31-2.67a4.43,4.43,0,0,1,1.25-.83,2.8,2.8,0,0,1,1-.18,2,2,0,0,1,1.06.32,5.91,5.91,0,0,1,1.24,1.24q5.34,6.36,11,12.71t10.45,11.6q4.83,5.25,8.38,8.93c2.36,2.46,4,4.05,4.83,4.79q.74-4.69,1.06-9t.32-8.79q0-3.59-.27-6.26c-.19-1.78-.37-3.28-.56-4.51s-.37-2.21-.55-2.95a7.79,7.79,0,0,1-.27-1.75,1.81,1.81,0,0,1,.78-1.33,5.15,5.15,0,0,1,1.7-.79,12,12,0,0,1,2.12-.36c.74-.06,1.41-.1,2-.1a1.87,1.87,0,0,1,1.75.79,3.43,3.43,0,0,1,.46,1.79,16.09,16.09,0,0,1-.46,3c-.31,1.41-.64,3.32-1,5.71s-.71,5.39-1,9-.46,7.9-.46,12.93c0,1.54,0,3.18.09,4.93s.09,3.6.09,5.57a3.33,3.33,0,0,1-.83,2,12.69,12.69,0,0,1-1.88,1.93,16.68,16.68,0,0,1-2.08,1.47,3.55,3.55,0,0,1-1.38.6c-.3,0-.57-.34-.78-1s-.48-1.54-.78-2.58a27.12,27.12,0,0,0-1.34-3.5,16.11,16.11,0,0,0-2.53-3.87q-3.59-4.23-7.41-8.33t-7.18-7.64q-3.36-3.54-6.08-6.31T246,185.54c-.19,2.58-.34,5.23-.47,8s-.2,5.39-.23,8-.06,5-.09,7.22,0,4.13,0,5.67c0,1.35,0,2.71.09,4.09s.09,2.44.09,3.18a4.07,4.07,0,0,1-.32,1.52,1.88,1.88,0,0,1-1.34,1.06l-3.36.83a9.52,9.52,0,0,1-2.16.27c-1.17,0-1.75-.43-1.75-1.29a2.5,2.5,0,0,1,.46-1.42c.31-.47.66-1,1.06-1.75a15.39,15.39,0,0,0,1.15-2.81,20,20,0,0,0,.74-4.51l1.1-22.74C241,189.62,241,188.47,241,187.33Z" fill="#fff" stroke="#000" stroke-miterlimit="10" stroke-width="2.35"/><path d="M324.88,205.7a6.33,6.33,0,0,1,2.67-.37,2,2,0,0,1,.92.19c.25.12.44.44.6,1a10.5,10.5,0,0,1,.27,2.4c0,1.07.05,2.59.05,4.55a95,95,0,0,0,.42,10,63.33,63.33,0,0,1,.41,6.49,2.71,2.71,0,0,1-.51,1.85,3.05,3.05,0,0,1-2.16.55,1.44,1.44,0,0,1-.92-.28,2.83,2.83,0,0,1-.74-1.06,11.79,11.79,0,0,1-.69-2.25c-.21-1-.44-2.27-.69-3.87a2.53,2.53,0,0,0-2.76-2.39,8.81,8.81,0,0,0-1.34.18c-.64.12-1.39.25-2.25.37s-1.78.25-2.76.37a23.06,23.06,0,0,1-2.77.18,20.5,20.5,0,0,1-10.44-2.39,20.09,20.09,0,0,1-6.5-5.85,22.59,22.59,0,0,1-3.36-7.23,27.26,27.26,0,0,1-1-6.62,36.94,36.94,0,0,1,1.75-11.24,27.81,27.81,0,0,1,5.47-9.85,28.36,28.36,0,0,1,9.44-7,31.5,31.5,0,0,1,13.63-2.72,21.83,21.83,0,0,1,8,1.15q2.76,1.15,2.76,3.64a2.18,2.18,0,0,1-.55,1.34,5.84,5.84,0,0,1-1.29,1.19,8.48,8.48,0,0,1-1.48.83,3.07,3.07,0,0,1-1.19.32,2.16,2.16,0,0,1-1.34-.55c-.46-.37-1.36-1.16-2.71-2.39a4.45,4.45,0,0,0-1.75-1.06,7.83,7.83,0,0,0-2-.23,14.88,14.88,0,0,0-8.51,2.71,28.82,28.82,0,0,0-7.05,6.86,35.45,35.45,0,0,0-4.79,9.07,28.11,28.11,0,0,0-1.74,9.35,26,26,0,0,0,1.05,8.1,11.14,11.14,0,0,0,2.95,4.83,10.28,10.28,0,0,0,4.37,2.35,21.24,21.24,0,0,0,5.34.64,16.35,16.35,0,0,0,4.56-.59,15,15,0,0,0,3.59-1.52,9,9,0,0,0,2.4-2,4.82,4.82,0,0,0,1.05-2.21l.74-5.52A1.72,1.72,0,0,1,324.88,205.7Z" fill="#fff" stroke="#000" stroke-miterlimit="10" stroke-width="2.35"/></g></g></svg>