<svg xmlns="http://www.w3.org/2000/svg" viewBox="0 0 379.23 170.43"><g id="Layer_2" data-name="Layer 2"><g id="Layer_4" data-name="Layer 4"><path d="M376.41,87.07s-12.33-.92-15.93,0a79.72,79.72,0,0,0-12.85,5,64.41,64.41,0,0,1-13.36,4.59c-3.08.46-13.88,1.38-17.48-.46s-5.65-2.75-5.65-2.75c0,6.54-5.84,11-13.67,11a16.09,16.09,0,0,1-8-2.08,18.73,18.73,0,0,0,1.85-3.26c.62-1.43,3.86-8.9-.73-14.85a13.45,13.45,0,0,0-6.68-4.58,15,15,0,0,0-8.73,0,13.26,13.26,0,0,0-6.69,4.58,10,10,0,0,0-2.05,5.51,8,8,0,0,0,1,4.59,9.45,9.45,0,0,0,4.11,3.67,11,11,0,0,0,8.42.56,8,8,0,0,0,3-2.32A6.66,6.66,0,0,0,284.42,93a6.13,6.13,0,0,0-2.06-5.5,7.35,7.35,0,0,0-8.22-.46,4.38,4.38,0,0,0-2.06,3.21,4.08,4.08,0,0,0,1.54,3.21,5.29,5.29,0,0,0,5.66.46,3.17,3.17,0,0,0,1.59-2,2.52,2.52,0,0,0-1.08-2.58c-1-.61-2.51-.68-3.08,0a1,1,0,0,0,0,1.38c.47.34,1.28-.32,1.83,0a1,1,0,0,1,.22,1.34c-.46.76-2.15.88-3.26.29a2.42,2.42,0,0,1-1.36-2.12,2.57,2.57,0,0,1,1-1.84,4.41,4.41,0,0,1,3.59-.91,4.52,4.52,0,0,1,3.09,2.29,5,5,0,0,1-1,6c-2.18,2-5.64,1.74-7.71.92a7.34,7.34,0,0,1-3.6-10.55,9.2,9.2,0,0,1,4.63-3.67,13,13,0,0,1,11.3.92,10.51,10.51,0,0,1,4.12,13.76,11.27,11.27,0,0,1-2.57,3.67c-3.92,3.69-9.61,3.67-10,3.67-5.93,0-11-3.33-12.84-8-9.45-1.09-16.71-7.58-16.71-15.43,0-7,5.85-13,13.88-14.93a10.06,10.06,0,0,1-.52-3.19c0-7.72,8.75-14,19.53-14,9.91,0,18.09,5.28,19.35,12.13a19.14,19.14,0,0,1,2.75-.2c7.75,0,14.32,3.66,15.42,9.63a17.53,17.53,0,0,1,5.14,0c2.06.46,2.57.46,6.36,2.37,3.46,1.75,9.23,7,15.23,8.64,8,2.24,10.8-1.48,21.07.92A34.45,34.45,0,0,1,376.41,87.07Z" fill="#f3c43e" stroke="#d7aa2e" stroke-miterlimit="10" stroke-width="1.46"/><path d="M237.7,29.76a83.32,83.32,0,0,0,8.35-7.06q2.94-2.94,4.62-5a26.58,26.58,0,0,1,2.82-3.08,4.24,4.24,0,0,1,2.95-1,7.14,7.14,0,0,1,3.21,1q1.92,1,5.78,2.82c1.19.51,2.35,2,3.46,4.36a14.72,14.72,0,0,1,1.67,5.65,3.06,3.06,0,0,1-1,2.44,8.31,8.31,0,0,1-3.85,1.41c-1.2.18-3.42,1.16-6.67,3s-7.06,4.1-11.42,6.93-9,6-14,9.37-9.75,6.8-14.37,10.14-8.82,6.46-12.58,9.37-6.59,5.22-8.47,6.93q4.62,2.84,16.68,10.66t28.24,17.84q16.17,10,34.27,20.66T311.89,145a22.83,22.83,0,0,0,5.78,1.93q3.21.64,6.16,1.15a28.28,28.28,0,0,1,5,1.29c1.37.51,2.05,1.28,2.05,2.31s-.68,2.44-2.05,4.23a45.82,45.82,0,0,1-4.88,5.39,48,48,0,0,1-5.78,4.75c-2,1.37-3.55,2.06-4.75,2.06a8.68,8.68,0,0,1-4.87-1.54q-2.31-1.54-7.45-4.88-32.34-22.33-54.94-37.1T209,101.13q-14.64-8.72-22.34-12.32t-10-3.59q0,6.42.13,15.79t.26,19q.12,9.63.25,18.1t.13,13.09a7.22,7.22,0,0,1-1.67,3.86,31.51,31.51,0,0,1-4,4.49,28.37,28.37,0,0,1-4.62,3.59,7.8,7.8,0,0,1-3.59,1.41,2.66,2.66,0,0,1-2.57-1.92q-.76-1.94-.77-9.37,0-2.82.26-8.73c.17-3.94.3-8.68.38-14.25s.22-11.63.39-18.23.26-13.39.26-20.4q0-15.4-.77-30.94t-2.06-30.94a8,8,0,0,0-1.41-4.1,17,17,0,0,0-2.31-2.57,26.33,26.33,0,0,0-2-1.67A1.76,1.76,0,0,1,152,20a3.16,3.16,0,0,1,.38-1.8,11.62,11.62,0,0,1,.9-1q4.88-3.84,7.83-6c2-1.45,3.47-2.57,4.49-3.34a9.73,9.73,0,0,1,2.31-1.41,4.31,4.31,0,0,1,1.29-.26,6.42,6.42,0,0,1,2.56,1,29.86,29.86,0,0,1,3.73,2.57,25.51,25.51,0,0,1,3.46,3.34,5.29,5.29,0,0,1,1.54,3.33,95,95,0,0,1-.64,9.63q-.65,6-1.28,13.35T177.24,54.8q-.65,8.09-.64,15.53L183,72.64Z" fill="#fff" stroke="#000" stroke-miterlimit="10" stroke-width="4.58"/><path d="M19.29,164.22c-2.06,0-3.46-.6-4.2-1.82A9.87,9.87,0,0,1,14,157.23q0-14.55.84-30.23t.84-33.29V77.49c0-5.79-.05-11.47-.14-17.07s-.24-10.82-.42-15.67-.38-9-.56-12.59a9.2,9.2,0,0,0-1.82-5.74,22.57,22.57,0,0,0-4.2-4.2q-2.37-1.81-4.19-3.49A5.15,5.15,0,0,1,2.5,14.81,6.52,6.52,0,0,1,3.76,12,24.69,24.69,0,0,1,7.12,8,25.1,25.1,0,0,1,12,4.18,11.22,11.22,0,0,1,17.89,2.5,21.41,21.41,0,0,1,24,3.62a57.45,57.45,0,0,1,7,2.66,35.79,35.79,0,0,1,5.73,3.21c1.59,1.12,2.38,2.15,2.38,3.08q0,2.52-2.1,7.28a31.66,31.66,0,0,0-2.38,11.47q0,10.07-.14,21t-.7,21.27h74.43q.27-5.59.42-12.6t.14-14.26A174.89,174.89,0,0,0,108,28.8q-.84-8.11-.84-12c0-1.3.93-2.52,2.8-3.64a33.16,33.16,0,0,1,6.57-2.94,53.6,53.6,0,0,1,7.7-1.95,37.62,37.62,0,0,1,6.43-.7c3.73,0,5.6,1.31,5.6,3.91a5,5,0,0,1-.7,2.38c-.47.84-1,1.87-1.54,3.08s-1.21,2.75-2,4.62a39.46,39.46,0,0,0-2,7.27q-.84,5-1.39,10.91t-.84,11.89q-.28,6-.42,11.76c-.1,3.82-.14,7.13-.14,9.92,1.49-.18,3-.32,4.61-.41s3.12-.14,4.62-.14a7.24,7.24,0,0,1,3.5.7c.84.46,1.26,1.63,1.26,3.49a20.7,20.7,0,0,1-1.68,6.86q-1.68,4.34-5,4.34a8.08,8.08,0,0,1-2-.29,10.76,10.76,0,0,0-2.52-.27c-1.86,0-2.79,1.11-2.79,3.35L126.73,146a15,15,0,0,1-.7,4.06,34.37,34.37,0,0,1-1.82,4.76,16.43,16.43,0,0,1-2.66,4.05,4.65,4.65,0,0,1-3.5,1.68c-2.61,0-4.43-.46-5.45-1.4s-1.64-2.89-1.82-5.87L108,88.12q-7.56,0-18.61.42t-22.24,1q-11.19.57-20.56,1.54a89.42,89.42,0,0,0-13.29,2.1,20,20,0,0,0-1.12,5.18c-.19,2-.28,3.68-.28,5.18v47.56Q31.88,164.23,19.29,164.22Z" fill="#fff" stroke="#000" stroke-miterlimit="10" stroke-width="5"/></g></g></svg>